<?xml version="1.0" standalone="no"?>
<!DOCTYPE svg PUBLIC ""
 "">
<svg version="1.0" xmlns="http://www.w3.org/2000/svg"
 width="768.000000pt" height="699.000000pt" viewBox="0 0 768.000000 699.000000"
 preserveAspectRatio="xMidYMid meet">
<metadata>

</metadata>
<g transform="translate(0.000000,699.000000) scale(0.100000,-0.100000)"
fill="#000000" stroke="none">
<path d="M3500 6900 c-552 -68 -1036 -247 -1495 -553 -234 -156 -521 -414
-615 -552 -18 -27 -57 -76 -86 -107 -29 -32 -75 -99 -103 -150 -28 -51 -72
-127 -97 -168 -46 -77 -145 -277 -159 -321 -4 -13 -41 -88 -81 -166 -123 -240
-174 -467 -224 -985 -14 -143 -8 -527 9 -593 6 -22 17 -89 26 -150 103 -708
425 -1352 926 -1846 302 -299 666 -538 1049 -690 41 -17 118 -53 170 -81 58
-31 136 -62 200 -79 406 -112 478 -122 860 -123 338 -1 497 15 752 75 244 58
390 105 643 208 55 22 112 43 128 46 15 3 44 21 65 39 20 18 84 61 141 95 276
164 502 346 713 575 505 549 794 1210 864 1981 27 293 7 626 -56 942 -35 174
-97 383 -167 563 -49 124 -176 382 -244 495 -68 112 -205 300 -310 424 -454
541 -1129 932 -1868 1081 -299 60 -738 77 -1041 40z m640 -125 c242 -19 269
-23 485 -70 457 -100 948 -345 1325 -659 524 -437 910 -1085 1051 -1766 79
-378 89 -808 29 -1150 -32 -177 -117 -487 -120 -435 l-1 20 -8 -20 c-5 -11 -6
-26 -3 -34 3 -7 -1 -17 -8 -21 -15 -9 -52 -105 -54 -142 0 -14 -4 -24 -7 -22
-11 6 -32 -54 -23 -67 4 -7 3 -10 -3 -6 -11 7 -71 -120 -65 -138 2 -5 1 -7 -3
-4 -3 4 -30 -39 -59 -95 -113 -214 -279 -454 -417 -601 -25 -27 -60 -66 -77
-86 -45 -52 -234 -217 -305 -267 -44 -30 -63 -39 -68 -30 -4 7 -11 9 -15 5 -4
-4 -13 -2 -21 4 -10 9 -13 8 -13 -4 0 -11 -14 -16 -47 -19 -55 -5 -66 -1 -39
14 10 5 25 19 35 30 9 10 46 44 83 74 102 82 315 296 412 414 304 367 519 790
619 1217 45 189 86 514 88 697 1 91 14 181 18 126 l2 -25 10 25 c6 13 7 36 4
50 -4 17 -3 21 4 11 7 -11 10 -10 15 5 3 10 3 2 0 -18 -5 -38 12 -61 27 -37 6
10 9 6 9 -13 0 -16 4 -28 9 -28 11 0 4 149 -14 315 -31 277 -115 586 -232 850
-56 129 -165 336 -199 382 -13 17 -24 36 -24 41 0 5 -9 17 -20 27 -11 10 -20
24 -20 31 0 7 -3 14 -7 16 -5 2 -37 44 -72 93 -64 89 -93 124 -161 194 -19 20
-39 45 -45 56 -14 26 -42 31 -48 8 -4 -14 -5 -13 -6 5 0 12 4 22 10 22 5 0 7
5 3 12 -6 9 -9 9 -12 0 -2 -7 -21 -12 -42 -12 -21 0 -42 -4 -45 -10 -3 -5 -12
-10 -18 -9 -9 0 -9 2 1 6 6 2 12 9 12 14 0 6 -6 9 -12 7 -7 -1 -25 6 -41 16
-20 14 -26 24 -22 40 5 16 4 18 -4 6 -9 -12 -17 -8 -53 26 -68 65 -206 176
-293 236 -432 299 -854 462 -1385 535 -172 23 -566 23 -740 -1 -289 -40 -546
-108 -800 -213 -124 -52 -304 -142 -390 -197 -254 -161 -407 -279 -587 -453
-52 -51 -99 -93 -104 -93 -5 0 -9 7 -9 15 0 8 -4 15 -10 15 -18 0 -11 20 8 21
15 1 15 2 0 6 -30 8 -29 34 4 72 206 236 564 503 878 657 127 61 206 97 268
120 35 14 75 32 90 42 14 9 23 11 19 5 -6 -9 -3 -11 7 -7 9 3 16 10 16 14 0 8
58 24 74 21 5 -1 16 5 25 12 15 14 32 19 100 32 13 2 38 9 55 14 121 39 371
72 606 81 192 7 221 6 370 -5z m192 -510 c13 -3 39 -8 58 -11 19 -4 53 -13 75
-21 22 -8 48 -16 59 -18 36 -8 111 -39 118 -49 4 -6 8 -7 8 -3 0 15 280 -135
288 -155 2 -5 8 -8 14 -8 29 0 299 -219 377 -306 24 -27 55 -62 70 -79 138
-155 274 -378 365 -599 46 -111 68 -310 55 -491 -14 -206 -34 -322 -109 -635
-68 -281 -101 -433 -110 -495 -4 -33 -13 -75 -20 -93 -13 -36 -4 -56 30 -67
44 -14 48 -80 16 -235 -13 -61 -62 -128 -121 -164 -16 -11 -34 -25 -38 -33 -5
-7 -12 -11 -17 -8 -4 3 -15 -6 -24 -20 -9 -14 -22 -25 -28 -25 -7 0 -21 -11
-33 -25 -11 -14 -33 -28 -49 -31 -16 -3 -32 -7 -35 -9 -10 -6 -104 14 -115 25
-19 19 -14 84 11 113 32 39 38 71 23 120 -13 45 -85 121 -106 113 -8 -3 -11 3
-8 19 2 14 -6 53 -18 87 -19 54 -22 86 -24 223 0 88 -4 172 -8 187 -6 24 -2
28 36 41 24 9 74 23 111 33 85 21 141 58 205 132 57 66 76 101 97 174 8 29 26
85 39 125 45 130 60 318 30 374 -14 29 -18 30 -57 24 -94 -16 -253 -66 -364
-116 -58 -26 -243 -145 -448 -289 -180 -127 -310 -197 -475 -258 -143 -52
-211 -72 -203 -59 5 7 8 48 8 93 0 74 3 84 30 123 54 75 58 87 40 121 -9 17
-37 63 -62 102 -98 152 -162 343 -194 583 -68 510 -35 908 97 1168 79 157 234
322 310 329 21 3 47 3 56 1 9 -2 27 -6 40 -8z m-2750 -568 c-2 -11 2 -15 11
-11 8 3 17 -3 21 -13 3 -10 8 -22 11 -28 3 -5 -11 -28 -30 -50 -30 -33 -38
-37 -46 -25 -8 12 -10 11 -8 -5 3 -28 -11 -55 -27 -55 -8 0 -14 9 -14 20 0 11
5 20 10 20 6 0 10 5 10 11 0 25 -58 -38 -65 -71 -4 -19 -10 -30 -12 -23 -2 7
-10 10 -18 7 -8 -3 -21 -2 -30 3 -15 9 -14 12 4 34 11 13 23 20 28 15 4 -5 2
-11 -4 -13 -15 -5 -18 -33 -4 -33 12 0 22 45 15 64 -3 8 0 22 8 30 7 8 38 44
68 80 53 62 78 77 72 43z m1011 -97 c446 -130 853 -438 1137 -860 73 -108 96
-154 169 -336 66 -167 81 -240 81 -401 0 -115 -36 -383 -53 -395 -5 -3 -15
-53 -21 -111 -6 -58 -14 -109 -18 -113 -5 -4 -9 -32 -9 -63 l-2 -56 -7 50 c-5
28 -9 110 -9 183 -1 124 -10 162 -27 110 -3 -12 -26 -41 -50 -65 -34 -33 -54
-67 -89 -154 -25 -61 -59 -127 -75 -146 -25 -28 -30 -42 -30 -84 0 -57 50
-173 95 -223 25 -27 29 -28 40 -13 7 9 15 46 18 82 6 65 30 117 78 175 17 20
20 21 14 5 -4 -11 -9 -31 -11 -45 -3 -14 -11 -52 -19 -85 -87 -367 -88 -373
-49 -491 23 -72 24 -84 14 -144 -14 -87 -59 -177 -115 -229 -40 -37 -46 -40
-52 -24 -5 10 -8 109 -8 221 0 111 -2 201 -5 199 -9 -5 -74 -34 -92 -40 -22
-8 -23 -33 -3 -45 20 -10 24 -35 30 -157 2 -55 6 -145 9 -200 3 -62 2 -89 -3
-70 -5 17 -9 25 -10 18 -2 -17 -101 -63 -138 -63 -18 0 -48 7 -66 16 l-34 16
-5 163 c-4 107 -10 170 -19 186 -7 13 -14 26 -15 29 0 3 -4 13 -8 22 -4 9 -9
22 -10 30 -2 7 -5 20 -9 28 -15 40 -33 139 -33 175 1 33 4 40 21 40 22 0 32
34 19 63 -4 9 -8 19 -9 22 0 3 -7 22 -14 43 -15 44 -9 92 15 119 15 16 15 19
0 43 -29 45 -79 52 -190 30 -35 -7 -176 -73 -176 -83 0 -4 -23 -23 -51 -41
-27 -19 -53 -40 -57 -46 -4 -5 -31 -30 -59 -54 -29 -23 -53 -47 -53 -52 0 -18
47 -33 113 -35 101 -5 110 -16 47 -58 -47 -31 -88 -33 -121 -7 -44 34 -117 71
-142 71 -13 0 -33 -8 -44 -17 -64 -55 -79 -63 -116 -63 -53 0 -72 13 -103 68
-15 26 -39 61 -54 77 -26 29 -52 94 -64 162 -4 27 0 38 24 63 l29 30 -16 52
c-8 29 -16 79 -16 111 -2 63 14 87 56 87 21 0 107 40 107 49 0 3 -18 26 -40
50 -22 25 -40 47 -40 51 0 3 -9 16 -20 28 -11 11 -41 56 -66 99 -26 43 -52 85
-59 93 -16 21 -53 110 -60 146 -3 16 -8 45 -11 64 -3 19 -7 43 -10 52 -13 44
-41 195 -48 253 -3 28 -10 86 -15 130 -8 75 -14 191 -15 295 -1 57 14 292 19
299 1 3 6 22 9 41 11 65 16 89 25 112 5 13 9 28 10 33 6 54 88 236 126 281 6
7 21 27 35 45 37 48 80 87 168 150 23 17 42 35 42 39 0 17 105 2 213 -30z
m-1347 -627 c-53 -110 -76 -160 -76 -167 0 -3 -9 -25 -20 -49 -79 -170 -188
-607 -211 -842 -16 -171 -6 -542 20 -719 69 -466 245 -901 518 -1284 219 -305
536 -603 854 -801 204 -126 470 -248 694 -316 134 -41 179 -52 326 -79 218
-40 345 -49 616 -43 280 5 420 23 649 81 207 53 192 50 169 35 -10 -7 -33 -15
-50 -19 -16 -3 -25 -9 -20 -12 6 -3 27 0 48 7 20 7 39 10 42 6 2 -4 -60 -24
-138 -46 -749 -202 -1539 -110 -2227 258 -52 28 -144 81 -205 118 -60 37 -111
64 -113 58 -2 -5 -8 -9 -14 -9 -6 0 -8 6 -5 13 4 10 -9 13 -49 13 -39 -1 -53
-4 -49 -13 2 -7 0 -13 -5 -13 -6 0 -10 5 -10 10 0 6 -5 10 -10 10 -11 0 -69
46 -210 166 -288 243 -631 734 -763 1089 -93 252 -164 487 -172 570 -2 16 -10
77 -19 134 -9 58 -16 121 -16 141 0 20 -4 40 -10 46 -5 5 -12 52 -14 104 -4
74 -3 83 3 39 9 -60 16 -79 32 -79 6 0 7 4 4 10 -3 6 1 7 9 4 11 -4 16 0 17
12 1 17 2 17 6 2 13 -52 21 3 27 190 6 161 24 404 37 479 5 28 -4 33 -56 33
-37 0 -55 4 -55 13 0 18 27 166 39 212 35 142 119 405 132 415 4 3 14 26 22
51 21 62 69 159 79 159 15 0 8 -30 -12 -47 -11 -10 -23 -32 -26 -50 -3 -18
-10 -36 -15 -39 -14 -8 -10 -44 6 -61 14 -13 15 -11 9 26 -6 35 -4 41 11 41
15 0 17 -6 12 -42 -12 -77 -16 -123 -11 -103 3 11 11 34 19 50 7 17 19 45 26
63 8 22 17 31 26 28 12 -5 13 1 8 27 -5 24 -4 28 4 17 9 -13 11 -13 11 2 0 10
-9 23 -20 30 -11 7 -20 17 -20 22 0 4 7 3 15 -4 18 -15 16 -16 39 33 18 38 40
48 50 22 6 -17 26 -20 26 -4 0 5 -4 7 -10 4 -5 -3 -10 -3 -10 2 0 4 -3 18 -6
31 -5 18 -3 21 10 16 9 -3 16 -14 16 -23 1 -13 3 -12 12 4 9 17 27 34 35 35 1
0 -13 -30 -31 -67z m2930 -1344 c230 -82 258 -88 414 -83 l130 4 -29 -41 -30
-40 20 -45 c25 -60 24 -80 -6 -109 -30 -31 -80 -33 -153 -5 -66 25 -118 25
-182 0 -28 -11 -64 -20 -79 -20 -41 0 -96 25 -120 56 -11 14 -24 23 -30 20 -9
-6 -26 26 -56 107 -10 26 -26 52 -35 57 -14 7 -17 24 -17 85 0 41 1 75 2 75 1
0 78 -27 171 -61z"/>
<path d="M2243 4468 c-14 -27 -17 -60 -17 -183 0 -140 2 -155 28 -225 15 -41
32 -99 36 -128 21 -132 151 -255 315 -297 62 -16 241 -46 449 -76 144 -20 169
-21 250 -10 50 7 155 33 234 58 142 45 222 88 222 118 0 16 -146 90 -320 162
-141 59 -207 95 -385 210 -184 118 -221 140 -426 257 -122 69 -307 146 -351
146 -10 0 -25 -15 -35 -32z"/>
</g>
</svg>
